<svg width="32" height="32" viewBox="0 0 32 32" fill="none" xmlns="http://www.w3.org/2000/svg">
  <!-- Main H Shape - Test tube (left stroke) -->
  <path d="M 10 8 L 10 24 C 10 26 11 28 13 28 L 14 28 C 16 28 17 26 17 24 L 17 8 C 17 6 16 4 14 4 L 13 4 C 11 4 10 6 10 8 Z" fill="#1f2937"/>
  
  <!-- Test tube markings (beige lines) -->
  <line x1="11" y1="9" x2="16" y2="9" stroke="#f5f5dc" stroke-width="1" stroke-linecap="round"/>
  <line x1="11" y1="11" x2="16" y2="11" stroke="#f5f5dc" stroke-width="1" stroke-linecap="round"/>
  <line x1="11" y1="13" x2="16" y2="13" stroke="#f5f5dc" stroke-width="1" stroke-linecap="round"/>
  <line x1="11" y1="15" x2="16" y2="15" stroke="#f5f5dc" stroke-width="1" stroke-linecap="round"/>
  <line x1="11" y1="17" x2="16" y2="17" stroke="#f5f5dc" stroke-width="1" stroke-linecap="round"/>
  <line x1="11" y1="19" x2="16" y2="19" stroke="#f5f5dc" stroke-width="1" stroke-linecap="round"/>
  <line x1="11" y1="21" x2="16" y2="21" stroke="#f5f5dc" stroke-width="1" stroke-linecap="round"/>
  <!-- Longer marking line -->
  <line x1="11" y1="23" x2="17" y2="23" stroke="#f5f5dc" stroke-width="1" stroke-linecap="round"/>
  
  <!-- Leaf (right stroke and crossbar of H) -->
  <path d="M 22 8 C 22 6 21 4 19 4 L 18 4 C 16 4 15 6 15 8 L 15 10 C 15 12 16 13 18 13 L 19 13 C 21 13 22 12 22 10 L 22 8 Z M 18 13 L 18 24 C 18 26 19 28 21 28 L 22 28 C 24 28 25 26 25 24 L 25 18 C 25 16 24 15 22 15 L 21 15 C 19 15 18 16 18 18 L 18 13 Z" fill="#10b981"/>
  
  <!-- Leaf vein -->
  <path d="M 18 10 L 22 13 M 18 15 L 22 18 M 18 20 L 22 23" stroke="#059669" stroke-width="0.5" stroke-linecap="round"/>
  
  <!-- Bottom curve of H (dark teal-green) -->
  <path d="M 22 24 C 22 22 21 21 19 21 L 18 21 C 16 21 15 22 15 24 L 15 28 L 17 28 L 17 24 C 17 22 18 21 19 21 L 21 21 C 22 21 23 22 23 24 L 23 28 L 25 28 L 25 24 C 25 22 24 21 22 21 Z" fill="#1f2937"/>
</svg>