<svg width="192" height="192" viewBox="0 0 192 192" fill="none" xmlns="http://www.w3.org/2000/svg">
  <!-- Background circle for contrast -->
  <circle cx="96" cy="96" r="90" fill="#ffffff" stroke="#e5e7eb" stroke-width="3"/>
  
  <!-- Main H Shape - Test tube (left stroke) -->
  <path d="M 60 45 L 60 147 C 60 156 67 165 78 165 L 84 165 C 96 165 102 156 102 147 L 102 45 C 102 36 96 27 84 27 L 78 27 C 67 27 60 36 60 45 Z" fill="#1f2937"/>
  
  <!-- Test tube markings (beige lines) -->
  <line x1="66" y1="52" x2="96" y2="52" stroke="#f5f5dc" stroke-width="2" stroke-linecap="round"/>
  <line x1="66" y1="64" x2="96" y2="64" stroke="#f5f5dc" stroke-width="2" stroke-linecap="round"/>
  <line x1="66" y1="76" x2="96" y2="76" stroke="#f5f5dc" stroke-width="2" stroke-linecap="round"/>
  <line x1="66" y1="88" x2="96" y2="88" stroke="#f5f5dc" stroke-width="2" stroke-linecap="round"/>
  <line x1="66" y1="100" x2="96" y2="100" stroke="#f5f5dc" stroke-width="2" stroke-linecap="round"/>
  <line x1="66" y1="112" x2="96" y2="112" stroke="#f5f5dc" stroke-width="2" stroke-linecap="round"/>
  <line x1="66" y1="124" x2="96" y2="124" stroke="#f5f5dc" stroke-width="2" stroke-linecap="round"/>
  <line x1="66" y1="136" x2="96" y2="136" stroke="#f5f5dc" stroke-width="2" stroke-linecap="round"/>
  <!-- Longer marking line -->
  <line x1="66" y1="148" x2="99" y2="148" stroke="#f5f5dc" stroke-width="2" stroke-linecap="round"/>
  
  <!-- Leaf (right stroke and crossbar of H) -->
  <path d="M 132 45 C 132 36 126 27 114 27 L 108 27 C 96 27 90 36 90 45 L 90 60 C 90 72 102 78 108 78 L 114 78 C 126 78 132 72 132 60 L 132 45 Z M 108 78 L 108 147 C 108 156 114 165 126 165 L 132 165 C 144 165 150 156 150 147 L 150 105 C 150 93 138 87 132 87 L 126 87 C 114 87 108 93 108 105 L 108 78 Z" fill="#10b981"/>
  
  <!-- Leaf vein -->
  <path d="M 108 60 L 132 78 M 108 90 L 132 105 M 108 120 L 132 135" stroke="#059669" stroke-width="1.5" stroke-linecap="round"/>
  
  <!-- Bottom curve of H (dark teal-green) -->
  <path d="M 132 147 C 132 138 126 129 114 129 L 108 129 C 96 129 90 138 90 147 L 90 165 L 102 165 L 102 147 C 102 141 105 136 111 135 L 129 135 C 135 136 138 141 138 147 L 138 165 L 150 165 L 150 147 C 150 138 144 129 132 129 Z" fill="#1f2937"/>
</svg>
