<svg width="512" height="512" viewBox="0 0 512 512" fill="none" xmlns="http://www.w3.org/2000/svg">
  <!-- Background circle for contrast -->
  <circle cx="256" cy="256" r="240" fill="#ffffff" stroke="#e5e7eb" stroke-width="8"/>
  
  <!-- Main H Shape - Test tube (left stroke) -->
  <path d="M 160 120 L 160 392 C 160 416 176 440 208 440 L 224 440 C 256 440 272 416 272 392 L 272 120 C 272 96 256 72 224 72 L 208 72 C 176 72 160 96 160 120 Z" fill="#1f2937"/>
  
  <!-- Test tube markings (beige lines) -->
  <line x1="176" y1="140" x2="256" y2="140" stroke="#f5f5dc" stroke-width="6" stroke-linecap="round"/>
  <line x1="176" y1="170" x2="256" y2="170" stroke="#f5f5dc" stroke-width="6" stroke-linecap="round"/>
  <line x1="176" y1="200" x2="256" y2="200" stroke="#f5f5dc" stroke-width="6" stroke-linecap="round"/>
  <line x1="176" y1="230" x2="256" y2="230" stroke="#f5f5dc" stroke-width="6" stroke-linecap="round"/>
  <line x1="176" y1="260" x2="256" y2="260" stroke="#f5f5dc" stroke-width="6" stroke-linecap="round"/>
  <line x1="176" y1="290" x2="256" y2="290" stroke="#f5f5dc" stroke-width="6" stroke-linecap="round"/>
  <line x1="176" y1="320" x2="256" y2="320" stroke="#f5f5dc" stroke-width="6" stroke-linecap="round"/>
  <line x1="176" y1="350" x2="256" y2="350" stroke="#f5f5dc" stroke-width="6" stroke-linecap="round"/>
  <!-- Longer marking line -->
  <line x1="176" y1="380" x2="264" y2="380" stroke="#f5f5dc" stroke-width="6" stroke-linecap="round"/>
  
  <!-- Leaf (right stroke and crossbar of H) -->
  <path d="M 352 120 C 352 96 336 72 304 72 L 288 72 C 256 72 240 96 240 120 L 240 160 C 240 192 256 208 288 208 L 304 208 C 336 208 352 192 352 160 L 352 120 Z M 288 208 L 288 392 C 288 416 304 440 336 440 L 352 440 C 384 440 400 416 400 392 L 400 280 C 400 248 384 232 352 232 L 336 232 C 304 232 288 248 288 280 L 288 208 Z" fill="#10b981"/>
  
  <!-- Leaf vein -->
  <path d="M 288 160 L 352 208 M 288 240 L 352 280 M 288 320 L 352 360" stroke="#059669" stroke-width="4" stroke-linecap="round"/>
  
  <!-- Bottom curve of H (dark teal-green) -->
  <path d="M 352 392 C 352 368 336 344 304 344 L 288 344 C 256 344 240 368 240 392 L 240 440 L 272 440 L 272 392 C 272 376 280 360 296 360 L 344 360 C 360 360 368 376 368 392 L 368 440 L 400 440 L 400 392 C 400 368 384 344 352 344 Z" fill="#1f2937"/>
</svg>
