<svg width="256" height="256" viewBox="0 0 256 256" fill="none" xmlns="http://www.w3.org/2000/svg">
  <!-- Background circle for contrast -->
  <circle cx="128" cy="128" r="120" fill="#ffffff" stroke="#e5e7eb" stroke-width="2"/>
  
  <!-- Main H Shape - Test tube (left stroke) -->
  <path d="M 80 60 L 80 196 C 80 208 92 220 104 220 L 112 220 C 124 220 136 208 136 196 L 136 60 C 136 48 124 36 112 36 L 104 36 C 92 36 80 48 80 60 Z" fill="#1f2937"/>
  
  <!-- Test tube markings (beige lines) -->
  <line x1="88" y1="70" x2="128" y2="70" stroke="#f5f5dc" stroke-width="2" stroke-linecap="round"/>
  <line x1="88" y1="85" x2="128" y2="85" stroke="#f5f5dc" stroke-width="2" stroke-linecap="round"/>
  <line x1="88" y1="100" x2="128" y2="100" stroke="#f5f5dc" stroke-width="2" stroke-linecap="round"/>
  <line x1="88" y1="115" x2="128" y2="115" stroke="#f5f5dc" stroke-width="2" stroke-linecap="round"/>
  <line x1="88" y1="130" x2="128" y2="130" stroke="#f5f5dc" stroke-width="2" stroke-linecap="round"/>
  <line x1="88" y1="145" x2="128" y2="145" stroke="#f5f5dc" stroke-width="2" stroke-linecap="round"/>
  <line x1="88" y1="160" x2="128" y2="160" stroke="#f5f5dc" stroke-width="2" stroke-linecap="round"/>
  <!-- Longer marking line -->
  <line x1="88" y1="175" x2="132" y2="175" stroke="#f5f5dc" stroke-width="2" stroke-linecap="round"/>
  
  <!-- Leaf (right stroke and crossbar of H) -->
  <path d="M 176 60 C 176 48 164 36 152 36 L 144 36 C 132 36 120 48 120 60 L 120 80 C 120 92 132 104 144 104 L 152 104 C 164 104 176 92 176 80 L 176 60 Z M 144 104 L 144 196 C 144 208 156 220 168 220 L 176 220 C 188 220 200 208 200 196 L 200 140 C 200 128 188 116 176 116 L 168 116 C 156 116 144 128 144 140 L 144 104 Z" fill="#10b981"/>
  
  <!-- Leaf vein -->
  <path d="M 144 80 L 176 104 M 144 120 L 176 140 M 144 160 L 176 180" stroke="#059669" stroke-width="1.5" stroke-linecap="round"/>
  
  <!-- Bottom curve of H (dark teal-green) -->
  <path d="M 176 196 C 176 184 164 172 152 172 L 144 172 C 132 172 120 184 120 196 L 120 220 L 136 220 L 136 196 C 136 188 140 182 146 180 L 170 180 C 176 182 182 188 182 196 L 182 220 L 200 220 L 200 196 C 200 184 188 172 176 172 Z" fill="#1f2937"/>
</svg>